HIERARCHY
ROOT Hips
{
	OFFSET 52.595100 -44.763016 100.899994
	CHANNELS 6 Xposition Yposition Zposition Xrotation Yrotation Zrotation
	JOINT spine
	{
		OFFSET 0.000000 -0.507027 8.817039
		CHANNELS 3 Xrotation Yrotation Zrotation
		JOINT spine1
		{
			OFFSET 0.000000 0.000000 10.776596
			CHANNELS 3 Xrotation Yrotation Zrotation
			JOINT spine2
			{
				OFFSET 0.000000 -0.000004 10.325905
				CHANNELS 3 Xrotation Yrotation Zrotation
				JOINT Neck
				{
					OFFSET 0.000000 -1.263954 26.511002
					CHANNELS 3 Xrotation Yrotation Zrotation
					JOINT Head
					{
						OFFSET 0.000000 0.000000 8.009659
						CHANNELS 3 Xrotation Yrotation Zrotation
						End Site
						{
							OFFSET 0.000000 6.393856 19.387894
						}
					}
				}
				JOINT RightShoulder
				{
					OFFSET -4.347950 0.605423 11.151199
					CHANNELS 3 Xrotation Yrotation Zrotation
					JOINT RightArm
					{
						OFFSET 0.000000 -0.000004 14.625793
						CHANNELS 3 Xrotation Yrotation Zrotation
						JOINT RightArmRoll
						{
							OFFSET 0.000000 0.000000 7.383392
							CHANNELS 3 Xrotation Yrotation Zrotation
							JOINT RightForeArm
							{
								OFFSET 0.000000 -0.000004 21.505203
								CHANNELS 3 Xrotation Yrotation Zrotation
								JOINT RightForeArmRoll
								{
									OFFSET 0.000000 0.000000 8.285324
									CHANNELS 3 Xrotation Yrotation Zrotation
									JOINT RightHand
									{
										OFFSET 0.000000 -0.000004 16.626801
										CHANNELS 3 Xrotation Yrotation Zrotation
										End Site
										{
											OFFSET 0.000000 0.000000 0.100006
										}
									}
								}
							}
						}
					}
				}
				JOINT LeftShoulder
				{
					OFFSET 4.347950 0.605423 11.151199
					CHANNELS 3 Xrotation Yrotation Zrotation
					JOINT LeftArm
					{
						OFFSET 0.000000 -0.000004 14.625793
						CHANNELS 3 Xrotation Yrotation Zrotation
						JOINT LeftArmRoll
						{
							OFFSET 0.000000 0.000000 7.383392
							CHANNELS 3 Xrotation Yrotation Zrotation
							JOINT LeftForeArm
							{
								OFFSET 0.000000 -0.000004 21.505203
								CHANNELS 3 Xrotation Yrotation Zrotation
								JOINT LeftForeArmRoll
								{
									OFFSET 0.000000 0.000000 8.285324
									CHANNELS 3 Xrotation Yrotation Zrotation
									JOINT LeftHand
									{
										OFFSET 0.000000 -0.000004 16.626801
										CHANNELS 3 Xrotation Yrotation Zrotation
										End Site
										{
											OFFSET 0.000000 0.000000 0.100006
										}
									}
								}
							}
						}
					}
				}
			}
		}
	}
	JOINT RightUpLeg
	{
		OFFSET -7.815102 1.202171 -1.433090
		CHANNELS 3 Xrotation Yrotation Zrotation
		JOINT RightUpLegRoll
		{
			OFFSET 0.000000 -0.000004 19.495903
			CHANNELS 3 Xrotation Yrotation Zrotation
			JOINT RightLeg
			{
				OFFSET 0.000000 0.000004 -24.142700
				CHANNELS 3 Xrotation Yrotation Zrotation
				JOINT RightLegRoll
				{
					OFFSET 0.000000 -0.000004 24.221703
					CHANNELS 3 Xrotation Yrotation Zrotation
					JOINT RightFoot
					{
						OFFSET 0.000000 -0.000004 20.160507
						CHANNELS 3 Xrotation Yrotation Zrotation
						JOINT RightToeBase
						{
							OFFSET 0.000000 -0.000004 16.853195
							CHANNELS 3 Xrotation Yrotation Zrotation
							End Site
							{
								OFFSET 0.007145 0.940781 8.161865
							}
						}
					}
				}
			}
		}
	}
	JOINT LeftUpLeg
	{
		OFFSET 7.815102 1.202171 -1.433090
		CHANNELS 3 Xrotation Yrotation Zrotation
		JOINT LeftUpLegRoll
		{
			OFFSET 0.000000 -0.000004 19.496002
			CHANNELS 3 Xrotation Yrotation Zrotation
			JOINT LeftLeg
			{
				OFFSET 0.000000 -0.000004 24.142609
				CHANNELS 3 Xrotation Yrotation Zrotation
				JOINT LeftLegRoll
				{
					OFFSET 0.000000 -0.000004 24.445602
					CHANNELS 3 Xrotation Yrotation Zrotation
					JOINT LeftFoot
					{
						OFFSET 0.000000 -0.000004 19.936600
						CHANNELS 3 Xrotation Yrotation Zrotation
						JOINT LeftToeBase
						{
							OFFSET 0.000000 -0.000004 16.853195
							CHANNELS 3 Xrotation Yrotation Zrotation
							End Site
							{
								OFFSET -0.032013 0.940781 8.161865
							}
						}
					}
				}
			}
		}
	}
}
MOTION
Frames: 8
Frame Time: 0.041667
50.987495 -17.386194 64.507584 35.513408 1.695869 4.428516 2.605057 -0.568064 0.048823 9.214036 -1.132224 0.137620 10.859240 -1.130611 0.149170 16.965601 11.169524 0.954903 -13.719179 2.420803 1.171326 -11.335113 -39.791125 -12.298690 167.929490 -53.015375 130.281255 0.000000 -0.000002 0.000001 84.922057 1.363661 -3.651430 0.000013 0.000002 -3.008981 -4.999686 -7.998777 -0.000064 -12.741331 49.158289 14.631344 -31.961443 122.982679 74.628061 -0.000003 -0.000001 0.000003 79.643667 -0.057853 3.091150 -0.000004 -0.000004 3.005675 -5.000037 7.998693 -0.000107 -110.857447 -166.473608 -0.518407 179.999964 0.000005 -0.777994 85.518347 -3.254088 -4.383275 -0.000008 -0.000006 1.639329 83.551518 6.795234 1.033938 25.460029 -7.352989 0.012987 -111.322870 178.239182 1.388056 -0.000036 -0.000004 -0.653035 -93.434078 -1.998359 -0.597912 0.000000 -0.000002 -1.893311 81.607968 -5.802539 -5.021670 25.456957 7.355611 -0.001240 
50.992500 -17.415100 64.650284 35.535186 1.694131 4.447324 2.596147 -0.566338 0.050064 9.196209 -1.128520 0.139856 10.841426 -1.126907 0.151416 16.906723 11.156512 0.951668 -13.665494 2.398325 1.160838 -11.353598 -39.862159 -12.327938 167.668303 -53.037549 130.185250 -0.000003 0.000002 0.000001 84.758666 1.262340 -3.542480 0.000012 -0.000001 -3.008983 -4.999682 -7.998778 -0.000070 -12.736618 49.141343 14.624664 -32.060498 123.087727 74.570974 0.000000 -0.000002 0.000002 79.399289 0.062880 2.957513 -0.000004 -0.000002 3.005679 -5.000037 7.998692 -0.000107 -110.687122 -166.481872 -0.531304 179.999964 0.000006 -0.776000 85.695665 -3.278567 -4.403052 -0.000008 -0.000006 1.633530 83.562836 6.792281 1.044002 25.460027 -7.352986 0.012986 -111.153699 178.240862 1.383990 -0.000035 -0.000004 -0.652441 -93.241262 -1.965490 -0.559615 -0.000001 -0.000002 -1.889150 81.611492 -5.808181 -5.000507 25.456957 7.355611 -0.001210 
51.000004 -17.452805 64.791183 35.556851 1.691842 4.466191 2.587037 -0.564417 0.051322 9.178007 -1.124501 0.141957 10.823215 -1.122909 0.153558 16.837716 11.151652 0.950327 -13.600485 2.362463 1.151047 -11.369956 -39.935894 -12.354425 167.406393 -53.061096 130.092045 -0.000002 -0.000000 0.000002 84.594372 1.160810 -3.433890 0.000014 0.000002 -3.008982 -4.999685 -7.998782 -0.000071 -12.733138 49.122662 14.619414 -32.158955 123.195999 74.513314 -0.000004 0.000001 -0.000000 79.154051 0.184343 2.824437 -0.000000 -0.000003 3.005679 -5.000037 7.998693 -0.000105 -110.515903 -166.490437 -0.545177 179.999964 0.000005 -0.772995 85.874753 -3.303374 -4.422817 -0.000007 -0.000006 1.627679 83.573163 6.789342 1.054020 25.460030 -7.352988 0.012986 -110.983307 178.242433 1.379834 -0.000035 -0.000004 -0.651759 -93.046089 -1.931762 -0.521366 0.000000 -0.000003 -1.884661 81.613630 -5.813755 -4.979408 25.456955 7.355612 -0.001182 
50.996197 -17.481010 64.934387 35.578309 1.689054 4.485057 2.577789 -0.562335 0.052591 9.159494 -1.120245 0.143940 10.804695 -1.118666 0.155601 16.760461 11.153867 0.950583 -13.526053 2.315325 1.141954 -11.384037 -40.012040 -12.377974 167.144401 -53.084053 130.002351 0.000003 0.000001 0.000003 84.428781 1.059180 -3.325672 0.000015 0.000003 -3.008980 -4.999684 -7.998777 -0.000068 -12.730685 49.102865 14.615396 -32.258048 123.305678 74.456363 -0.000001 -0.000000 0.000001 78.908089 0.306561 2.691990 -0.000002 -0.000002 3.005680 -5.000039 7.998695 -0.000104 -110.343707 -166.499166 -0.558645 179.999964 0.000006 -0.771000 86.055780 -3.328349 -4.442550 -0.000007 -0.000006 1.621779 83.582487 6.786418 1.063901 25.460029 -7.352987 0.012986 -110.811801 178.243840 1.375451 -0.000035 -0.000004 -0.651005 -92.848567 -1.897206 -0.483174 -0.000000 -0.000002 -1.879890 81.614409 -5.819291 -4.958673 25.456955 7.355610 -0.001141 
51.004501 -17.520998 65.066986 35.599455 1.685835 4.503877 2.568423 -0.560123 0.053869 9.140780 -1.115782 0.145813 10.785967 -1.114237 0.157556 16.676506 11.162018 0.952221 -13.444252 2.258962 1.133549 -11.395751 -40.090523 -12.398455 166.881411 -53.109345 129.914965 -0.000002 -0.000000 0.000004 84.261981 0.957457 -3.217972 0.000014 0.000002 -3.008982 -4.999681 -7.998780 -0.000071 -12.729114 49.082750 14.612474 -32.359083 123.416095 74.401230 -0.000001 -0.000003 0.000001 78.661629 0.429554 2.560181 -0.000005 -0.000001 3.005679 -5.000038 7.998691 -0.000106 -110.170330 -166.508155 -0.572461 179.999964 0.000006 -0.769006 86.238631 -3.353592 -4.461959 -0.000007 -0.000007 1.615840 83.590806 6.783513 1.073741 25.460030 -7.352988 0.012987 -110.638840 178.245070 1.371654 -0.000035 -0.000004 -0.650192 -92.648852 -1.861921 -0.444052 -0.000000 -0.000002 -1.874880 81.614053 -5.824770 -4.937894 25.456957 7.355611 -0.001111 
51.004204 -17.527203 65.220383 35.620089 1.682220 4.522606 2.558998 -0.557814 0.055150 9.121931 -1.111190 0.147591 10.767149 -1.109669 0.159429 16.587733 11.175134 0.954926 -13.357184 2.195480 1.125825 -11.404970 -40.171146 -12.415723 166.618421 -53.134043 129.831268 -0.000002 -0.000000 0.000001 84.093651 0.855707 -3.110714 0.000017 0.000002 -3.008976 -4.999684 -7.998778 -0.000069 -12.728250 49.062970 14.610441 -32.461703 123.527168 74.347142 0.000000 -0.000003 0.000001 78.414731 0.553347 2.429061 -0.000001 -0.000002 3.005680 -5.000040 7.998690 -0.000104 -109.995709 -166.517348 -0.587317 179.999964 0.000006 -0.766998 86.423333 -3.379029 -4.481241 -0.000007 -0.000006 1.609860 83.598053 6.780695 1.083453 25.460030 -7.352987 0.012986 -110.464472 178.246094 1.367315 -0.000037 -0.000004 -0.649334 -92.447157 -1.826003 -0.405009 -0.000000 -0.000002 -1.869690 81.612428 -5.830359 -4.916988 25.456957 7.355611 -0.001081 
51.012802 -17.568905 65.360474 35.640217 1.678292 4.541186 2.549547 -0.555443 0.056430 9.103042 -1.106510 0.149284 10.748226 -1.105023 0.161228 16.495610 11.192071 0.958498 -13.266805 2.126955 1.118737 -11.411571 -40.253634 -12.429609 166.354790 -53.160093 129.750467 -0.000002 -0.000002 0.000001 83.923723 0.753957 -3.003922 0.000017 0.000002 -3.008984 -4.999683 -7.998780 -0.000066 -12.727936 49.044238 14.609150 -32.566260 123.638951 74.294345 0.000000 -0.000001 0.000002 78.167636 0.677968 2.298660 -0.000003 -0.000005 3.005680 -5.000039 7.998696 -0.000105 -109.819750 -166.526788 -0.602119 179.999964 0.000006 -0.765004 86.609893 -3.404613 -4.500392 -0.000008 -0.000006 1.603840 83.604282 6.777890 1.093126 25.460030 -7.352986 0.012986 -110.288560 178.246859 1.363261 -0.000034 -0.000004 -0.648445 -92.243378 -1.789508 -0.364038 -0.000001 -0.000002 -1.864340 81.609825 -5.835950 -4.895833 25.456953 7.355612 -0.001052 
51.016399 -17.597103 65.503586 35.659451 1.674101 4.559567 2.540129 -0.553040 0.057703 9.084183 -1.101799 0.150902 10.729409 -1.100346 0.162963 16.401892 11.211587 0.962683 -13.175123 2.055462 1.112232 -11.415399 -40.337793 -12.439935 166.090912 -53.186540 129.673013 0.000002 -0.000001 0.000004 83.752121 0.652254 -2.897581 0.000016 0.000003 -3.008980 -4.999682 -7.998781 -0.000066 -12.728010 49.027272 14.608412 -32.673333 123.750569 74.243104 0.000000 -0.000000 0.000002 77.920594 0.803416 2.169036 -0.000002 -0.000002 3.005680 -5.000035 7.998692 -0.000107 -109.642110 -166.536541 -0.616396 179.999964 0.000006 -0.761998 86.798338 -3.430309 -4.519407 -0.000007 -0.000006 1.597779 83.609527 6.775108 1.102655 25.460032 -7.352986 0.012986 -110.111098 178.247324 1.359317 -0.000035 -0.000004 -0.647539 -92.037844 -1.752464 -0.325170 -0.000000 -0.000002 -1.858890 81.606219 -5.841656 -4.874540 25.456957 7.355613 -0.001022 
